# xmcd
#
# Track frame offsets:
#	150
#	15068
#	29666
#	46236
#	61844
#	76564
#	89823
#	103596
#	114988
#	129426
#	143818
#	158533
#	173050
#	185992
#	201370
#	211221
#	226090
#	240852
#	254882
#	267722
#	281561
#	295686
#	310034
#	324846
#	339146
#
# Disc length: 4654
#
# Revision: 1
# Processed by: cddbd v1.5.1PL0 Copyright (c) Steve Scherf et al.
# Submitted via: dBpowerAMP V4.0
# Normalized: r0:TRMNUM
#
DISCID=52122c19
DTITLE=Various Artist - Soul Classics V2
DYEAR=2001
DGENRE=Soul
TTITLE0=Move Closer-Phyllis Nelson 
TTITLE1=Footsteps Following Me-Frances Nero
TTITLE2=Hold Me Tighter In The Rain-Billy Griffin
TTITLE3=Cherish-Kool and the Gang
TTITLE4=Band Of Gold-Freda Payne
TTITLE5=Heatwave-Martha Reeves and the Vanellas
TTITLE6=On A Crowded Street-Barbara Pennington
TTITLE7=Competition Aint Nothing-Carl Carlton
TTITLE8=Reaching For The Best-The Exciters
TTITLE9=Sexual Healing-Marvin Gaye
TTITLE10=These Things Will Keep Me Loving You-The Valvelettes
TTITLE11=Warm and Tender Love-Percy Sledge
TTITLE12=I Thank You-Sam and Dave
TTITLE13=Law of the Land-The Undisputed Truth
TTITLE14=So Much In Love-Tymes
TTITLE15=I Wouldn't Change The Man He Is-Blinky
TTITLE16=Weak Spot-Evelyn Thomas
TTITLE17=Twenty Four Hours A Day-Barbara Pennington
TTITLE18=You Got What It Takes-Marv Johnson
TTITLE19=A woman In Love-The Three Degrees
TTITLE20=Up The Ladder to The Roof-The Supremes
TTITLE21=Do The Funky Chicken-Rufus Thomas
TTITLE22=Heaven Sent-The Contours
TTITLE23=You Beat Me To The Punch-Mary Wells
TTITLE24=Save the Last Dance For Me-The Drifters
EXTD=
EXTT0=
EXTT1=
EXTT2=
EXTT3=
EXTT4=
EXTT5=
EXTT6=
EXTT7=
EXTT8=
EXTT9=
EXTT10=
EXTT11=
EXTT12=
EXTT13=
EXTT14=
EXTT15=
EXTT16=
EXTT17=
EXTT18=
EXTT19=
EXTT20=
EXTT21=
EXTT22=
EXTT23=
EXTT24=
PLAYORDER=
